<svg width="86" height="16" viewBox="0 0 86 16" fill="none" xmlns="http://www.w3.org/2000/svg">
<path fill-rule="evenodd" clip-rule="evenodd" d="M13.5703 13.726C13.2207 13.7765 12.8633 13.8026 12.4999 13.8026C8.39717 13.8026 5.07129 10.4767 5.07129 6.374C5.07129 4.19654 6.00814 2.23789 7.50075 0.87915C3.90524 1.39803 1.14258 4.49198 1.14258 8.23117C1.14258 12.3339 4.46846 15.6597 8.57115 15.6597C10.4964 15.6597 12.2505 14.9274 13.5703 13.726Z" fill="#333236"/>
<path d="M80.9711 14.6215C80.9204 14.6215 80.8951 14.5898 80.8951 14.5265V3.69646H78.4251C78.3617 3.69646 78.3301 3.66479 78.3301 3.60146L78.3491 1.47346C78.3491 1.42279 78.3744 1.39746 78.4251 1.39746H85.6451C85.7084 1.39746 85.7401 1.42279 85.7401 1.47346V3.60146C85.7401 3.66479 85.7147 3.69646 85.6641 3.69646H83.1751L83.1941 14.5265C83.1941 14.5898 83.1687 14.6215 83.1181 14.6215H80.9711Z" fill="#333236"/>
<path d="M74.2938 14.8115C73.6098 14.8115 72.9828 14.6405 72.4128 14.2985C71.8554 13.9438 71.4058 13.4815 71.0638 12.9115C70.7218 12.3288 70.5508 11.6891 70.5508 10.9925L70.5698 4.96948C70.5698 4.27281 70.7344 3.63948 71.0638 3.06948C71.4058 2.49948 71.8618 2.04348 72.4318 1.70148C73.0018 1.35948 73.6224 1.18848 74.2938 1.18848C74.9778 1.18848 75.5984 1.35948 76.1558 1.70148C76.7131 2.04348 77.1564 2.49948 77.4858 3.06948C77.8278 3.63948 77.9988 4.27281 77.9988 4.96948L78.0178 10.9925C78.0178 11.6891 77.8468 12.3288 77.5048 12.9115C77.1754 13.4815 76.7258 13.9438 76.1558 14.2985C75.5984 14.6405 74.9778 14.8115 74.2938 14.8115ZM74.2938 12.5125C74.6738 12.5125 75.0031 12.3605 75.2818 12.0565C75.5731 11.7398 75.7188 11.3851 75.7188 10.9925L75.6998 4.96948C75.6998 4.55148 75.5668 4.19681 75.3008 3.90548C75.0348 3.61414 74.6991 3.46848 74.2938 3.46848C73.9011 3.46848 73.5654 3.61414 73.2868 3.90548C73.0081 4.18414 72.8688 4.53881 72.8688 4.96948V10.9925C72.8688 11.4105 73.0081 11.7715 73.2868 12.0755C73.5654 12.3668 73.9011 12.5125 74.2938 12.5125Z" fill="#333236"/>
<path d="M61.9871 14.6215C61.9365 14.6215 61.9111 14.5898 61.9111 14.5265L61.9301 1.47346C61.9301 1.42279 61.9618 1.39746 62.0251 1.39746H64.1341C64.1975 1.39746 64.2291 1.42279 64.2291 1.47346L64.2101 6.64146H67.0601V1.47346C67.0601 1.42279 67.0855 1.39746 67.1361 1.39746H69.2451C69.3085 1.39746 69.3401 1.42279 69.3401 1.47346L69.3781 14.5265C69.3781 14.5898 69.3465 14.6215 69.2831 14.6215H67.1551C67.0918 14.6215 67.0601 14.5898 67.0601 14.5265V8.94046H64.2101V14.5265C64.2101 14.5898 64.1848 14.6215 64.1341 14.6215H61.9871Z" fill="#333236"/>
<path d="M57.015 14.8115C56.331 14.8115 55.704 14.6405 55.134 14.2985C54.5767 13.9439 54.127 13.4815 53.785 12.9115C53.4557 12.3289 53.291 11.6892 53.291 10.9925V10.1185C53.291 10.0552 53.3227 10.0235 53.386 10.0235H55.514C55.5647 10.0235 55.59 10.0552 55.59 10.1185V10.9925C55.59 11.4105 55.7294 11.7715 56.008 12.0755C56.2867 12.3669 56.6224 12.5125 57.015 12.5125C57.4077 12.5125 57.7434 12.3605 58.022 12.0565C58.3007 11.7525 58.44 11.3979 58.44 10.9925C58.44 10.5239 58.136 10.1185 57.528 9.77652C57.3254 9.66252 57.0087 9.48519 56.578 9.24452C56.1474 9.00385 55.742 8.77585 55.362 8.56052C54.6654 8.15519 54.146 7.64852 53.804 7.04052C53.4747 6.41985 53.31 5.72319 53.31 4.95052C53.31 4.24119 53.481 3.60785 53.823 3.05052C54.165 2.48052 54.6147 2.03085 55.172 1.70152C55.742 1.37219 56.3564 1.20752 57.015 1.20752C57.6864 1.20752 58.3007 1.37852 58.858 1.72052C59.428 2.04985 59.8777 2.49952 60.207 3.06952C60.549 3.62685 60.72 4.25385 60.72 4.95052V6.50852C60.72 6.55919 60.6947 6.58452 60.644 6.58452H58.516C58.4654 6.58452 58.44 6.55919 58.44 6.50852L58.421 4.95052C58.421 4.50719 58.2817 4.14619 58.003 3.86752C57.7244 3.58885 57.395 3.44952 57.015 3.44952C56.6224 3.44952 56.2867 3.60152 56.008 3.90552C55.7294 4.19685 55.59 4.54519 55.59 4.95052C55.59 5.36852 55.6787 5.71685 55.856 5.99552C56.0334 6.27419 56.3563 6.54019 56.825 6.79352C56.8883 6.83152 57.0087 6.90119 57.186 7.00252C57.376 7.09119 57.5787 7.19885 57.794 7.32552C58.0094 7.43952 58.1994 7.54085 58.364 7.62952C58.5414 7.71819 58.649 7.77519 58.687 7.80052C59.3203 8.15519 59.8207 8.59219 60.188 9.11152C60.5553 9.61819 60.739 10.2452 60.739 10.9925C60.739 11.7145 60.568 12.3669 60.226 12.9495C59.8967 13.5195 59.447 13.9755 58.877 14.3175C58.3197 14.6469 57.699 14.8115 57.015 14.8115Z" fill="#333236"/>
<path d="M45.2931 14.6215C45.1917 14.6215 45.1411 14.5771 45.1411 14.4885L45.1221 1.54946C45.1221 1.44813 45.1727 1.39746 45.2741 1.39746H46.9841L50.1951 8.88346L50.1001 1.54946C50.1001 1.44813 50.1571 1.39746 50.2711 1.39746H52.1521C52.2281 1.39746 52.2661 1.44813 52.2661 1.54946L52.2851 14.5075C52.2851 14.5835 52.2534 14.6215 52.1901 14.6215H50.5181L47.2311 7.62946L47.3641 14.4695C47.3641 14.5708 47.3071 14.6215 47.1931 14.6215H45.2931Z" fill="#333236"/>
<path d="M40.1043 14.8115C39.4203 14.8115 38.7933 14.6405 38.2233 14.2985C37.666 13.9438 37.2163 13.4815 36.8743 12.9115C36.5323 12.3288 36.3613 11.6891 36.3613 10.9925L36.3803 4.96948C36.3803 4.27281 36.545 3.63948 36.8743 3.06948C37.2163 2.49948 37.6723 2.04348 38.2423 1.70148C38.8123 1.35948 39.433 1.18848 40.1043 1.18848C40.7883 1.18848 41.409 1.35948 41.9663 1.70148C42.5237 2.04348 42.967 2.49948 43.2963 3.06948C43.6383 3.63948 43.8093 4.27281 43.8093 4.96948L43.8283 10.9925C43.8283 11.6891 43.6573 12.3288 43.3153 12.9115C42.986 13.4815 42.5363 13.9438 41.9663 14.2985C41.409 14.6405 40.7883 14.8115 40.1043 14.8115ZM40.1043 12.5125C40.4843 12.5125 40.8137 12.3605 41.0923 12.0565C41.3837 11.7398 41.5293 11.3851 41.5293 10.9925L41.5103 4.96948C41.5103 4.55148 41.3773 4.19681 41.1113 3.90548C40.8453 3.61414 40.5097 3.46848 40.1043 3.46848C39.7117 3.46848 39.376 3.61414 39.0973 3.90548C38.8187 4.18414 38.6793 4.53881 38.6793 4.96948V10.9925C38.6793 11.4105 38.8187 11.7715 39.0973 12.0755C39.376 12.3668 39.7117 12.5125 40.1043 12.5125Z" fill="#333236"/>
<path d="M31.5701 14.8115C30.8861 14.8115 30.2591 14.6405 29.6891 14.2985C29.1318 13.9438 28.6821 13.4815 28.3401 12.9115C27.9981 12.3288 27.8271 11.6891 27.8271 10.9925L27.8461 4.96948C27.8461 4.27281 28.0108 3.63948 28.3401 3.06948C28.6821 2.49948 29.1381 2.04348 29.7081 1.70148C30.2781 1.35948 30.8988 1.18848 31.5701 1.18848C32.2541 1.18848 32.8748 1.35948 33.4321 1.70148C33.9895 2.04348 34.4328 2.49948 34.7621 3.06948C35.1041 3.63948 35.2751 4.27281 35.2751 4.96948L35.2941 10.9925C35.2941 11.6891 35.1231 12.3288 34.7811 12.9115C34.4518 13.4815 34.0022 13.9438 33.4321 14.2985C32.8748 14.6405 32.2541 14.8115 31.5701 14.8115ZM31.5701 12.5125C31.9501 12.5125 32.2795 12.3605 32.5581 12.0565C32.8495 11.7398 32.9951 11.3851 32.9951 10.9925L32.9761 4.96948C32.9761 4.55148 32.8431 4.19681 32.5771 3.90548C32.3111 3.61414 31.9755 3.46848 31.5701 3.46848C31.1775 3.46848 30.8418 3.61414 30.5631 3.90548C30.2845 4.18414 30.1451 4.53881 30.1451 4.96948V10.9925C30.1451 11.4105 30.2845 11.7715 30.5631 12.0755C30.8418 12.3668 31.1775 12.5125 31.5701 12.5125Z" fill="#333236"/>
<path d="M18.076 14.6215C18.0253 14.6215 18 14.5898 18 14.5265L18.038 1.47346C18.038 1.42279 18.0633 1.39746 18.114 1.39746H20.432C20.4827 1.39746 20.527 1.42279 20.565 1.47346L22.294 3.98146L24.023 1.47346C24.061 1.42279 24.1053 1.39746 24.156 1.39746H26.493C26.5437 1.39746 26.569 1.42279 26.569 1.47346L26.607 14.5265C26.607 14.5898 26.5817 14.6215 26.531 14.6215H24.384C24.3333 14.6215 24.308 14.5898 24.308 14.5265L24.289 4.83646L22.294 7.72446L20.318 4.83646L20.299 14.5265C20.299 14.5898 20.2737 14.6215 20.223 14.6215H18.076Z" fill="#333236"/>
</svg>
